<?xml version="1.0" standalone="no"?>
<!DOCTYPE svg PUBLIC "-//W3C//DTD SVG 20010904//EN"
 "http://www.w3.org/TR/2001/REC-SVG-20010904/DTD/svg10.dtd">
<svg version="1.0" xmlns="http://www.w3.org/2000/svg"
 width="512.000000pt" height="512.000000pt" viewBox="0 0 512.000000 512.000000"
 preserveAspectRatio="xMidYMid meet">
<metadata>
Created by potrace 1.14, written by Peter Selinger 2001-2017
</metadata>
<g transform="translate(0.000000,512.000000) scale(0.100000,-0.100000)"
fill="#000000" stroke="none">
<path d="M2250 5104 c-151 -19 -316 -56 -313 -72 16 -74 296 -1179 301 -1184
4 -3 39 0 77 8 115 23 306 28 420 11 55 -9 101 -14 104 -12 2 2 29 125 61 272
32 147 90 416 129 596 39 181 71 332 71 336 0 9 -155 37 -285 51 -126 14 -428
10 -565 -6z"/>
<path d="M3240 4948 c-12 -40 -39 -131 -60 -203 -116 -392 -260 -908 -256
-913 3 -3 32 -14 63 -24 105 -34 276 -126 372 -199 51 -39 96 -67 100 -61 3 5
173 193 377 418 204 225 387 428 407 450 l37 42 -62 54 c-193 167 -424 309
-670 412 -99 42 -257 96 -278 96 -5 0 -19 -33 -30 -72z"/>
<path d="M1660 4960 c-208 -79 -458 -217 -637 -351 -69 -51 -243 -200 -243
-207 0 -6 53 -63 415 -437 149 -154 310 -320 357 -370 l87 -90 33 32 c88 83
254 187 393 245 50 20 89 41 89 45 -5 28 -379 1173 -383 1173 -3 0 -53 -19
-111 -40z"/>
<path d="M4004 3964 c-214 -207 -413 -400 -443 -429 l-54 -53 50 -59 c100
-118 164 -222 225 -368 20 -49 41 -89 45 -89 13 2 1168 376 1171 379 7 7 -77
214 -138 340 -76 157 -149 277 -249 410 -76 101 -199 245 -210 245 -4 0 -183
-169 -397 -376z"/>
<path d="M608 4218 c-122 -141 -225 -293 -317 -469 -96 -182 -205 -471 -184
-489 10 -8 1141 -333 1166 -334 14 -1 23 14 38 59 35 107 127 278 199 373 39
52 70 95 68 96 -3 3 -843 761 -889 803 l-26 24 -55 -63z"/>
<path d="M2440 3764 c-14 -2 -56 -9 -95 -15 -238 -38 -478 -169 -661 -360 -92
-97 -145 -171 -201 -284 -96 -190 -127 -327 -127 -545 0 -225 32 -360 135
-560 63 -122 125 -204 238 -313 184 -177 401 -285 651 -323 634 -95 1229 320
1366 956 14 62 18 127 18 240 0 223 -32 360 -132 554 -60 118 -140 223 -243
322 -168 160 -360 261 -589 309 -72 16 -309 28 -360 19z"/>
<path d="M4440 3038 c-327 -83 -596 -152 -597 -153 -2 -1 5 -37 14 -81 20 -96
23 -371 5 -458 -7 -33 -10 -61 -8 -64 7 -6 1207 -265 1211 -260 2 1 13 59 25
128 31 173 39 511 17 700 -17 141 -55 341 -66 339 -3 0 -274 -68 -601 -151z"/>
<path d="M41 3033 c-41 -233 -53 -530 -31 -743 11 -102 46 -297 59 -334 9 -22
11 -21 607 128 330 82 600 150 601 151 2 1 -5 37 -14 81 -20 96 -23 371 -5
458 7 33 10 62 7 64 -3 3 -116 29 -252 59 -137 29 -403 87 -593 128 -190 41
-350 75 -356 75 -6 0 -16 -30 -23 -67z"/>
<path d="M3824 2183 c-47 -153 -130 -313 -225 -436 -34 -44 -57 -82 -53 -86 5
-5 206 -188 448 -407 241 -219 444 -403 451 -408 13 -10 33 9 127 126 151 186
328 509 407 742 23 65 41 126 41 135 0 13 -118 49 -581 181 -319 91 -587 166
-595 168 -8 2 -17 -5 -20 -15z"/>
<path d="M1100 2095 c-107 -35 -370 -120 -584 -189 -214 -69 -390 -127 -393
-129 -9 -9 72 -211 136 -342 107 -216 252 -432 405 -600 l54 -60 83 80 c46 44
212 203 369 355 157 151 321 309 364 351 l79 76 -62 74 c-77 91 -168 242 -211
352 -18 45 -36 85 -39 89 -3 3 -94 -22 -201 -57z"/>
<path d="M3430 1569 c-77 -69 -235 -169 -340 -215 -55 -24 -107 -44 -116 -44
-20 0 -28 31 84 -315 50 -154 133 -412 185 -573 52 -161 97 -295 99 -298 10
-9 185 59 323 125 223 107 456 264 630 424 l50 46 -71 73 c-40 40 -232 240
-428 443 -196 204 -360 371 -364 372 -4 1 -27 -16 -52 -38z"/>
<path d="M1624 1532 c-23 -26 -208 -231 -413 -456 -204 -225 -371 -412 -371
-415 1 -13 176 -150 293 -229 67 -46 196 -121 287 -166 189 -94 426 -179 439
-158 4 7 43 136 86 285 43 150 118 409 167 576 49 167 87 310 84 317 -3 8 -12
14 -20 14 -8 0 -57 17 -109 38 -110 44 -257 130 -337 196 -30 25 -57 46 -60
46 -3 -1 -24 -22 -46 -48z"/>
<path d="M2800 1264 c-109 -22 -265 -28 -380 -14 -146 18 -144 18 -148 -5 -2
-11 -60 -278 -128 -592 -68 -315 -124 -579 -124 -587 0 -9 28 -19 90 -30 166
-30 298 -38 530 -33 217 6 297 15 463 52 67 15 77 20 76 39 -2 42 -294 1180
-304 1182 -5 1 -39 -4 -75 -12z"/>
</g>
</svg>
